<?xml version="1.0" encoding="UTF-8" standalone="no"?><!DOCTYPE svg PUBLIC "-//W3C//DTD SVG 1.1//EN" "http://www.w3.org/Graphics/SVG/1.1/DTD/svg11.dtd"><svg width="100%" height="100%" viewBox="0 0 256 256" version="1.1" xmlns="http://www.w3.org/2000/svg" xmlns:xlink="http://www.w3.org/1999/xlink" xml:space="preserve" xmlns:serif="http://www.serif.com/" style="fill-rule:evenodd;clip-rule:evenodd;stroke-linecap:round;stroke-linejoin:round;"><rect id="ArtBoard1" x="0" y="0" width="256" height="256" style="fill:none;"/><clipPath id="_clip1"><rect x="0" y="0" width="256" height="256"/></clipPath><g clip-path="url(#_clip1)"><path d="M256,26.353l0,203.294c0,14.545 -11.808,26.353 -26.353,26.353l-203.294,0c-14.545,0 -26.353,-11.808 -26.353,-26.353l0,-203.294c0,-14.545 11.808,-26.353 26.353,-26.353l203.294,0c14.545,0 26.353,11.808 26.353,26.353Z" style="fill:#115e59;"/><path d="M128,64l0,128" style="fill:none;fill-rule:nonzero;stroke:#fff;stroke-width:14.22px;"/><path d="M177.778,99.556l21.333,56.889c-12.605,9.454 -30.061,9.454 -42.667,0l21.333,-56.889Zm0,0l0,-7.111" style="fill:none;fill-rule:nonzero;stroke:#fff;stroke-width:14.22px;"/><path d="M64,92.444l7.111,0c19.842,0 39.382,-4.885 56.889,-14.222c17.507,9.337 37.047,14.222 56.889,14.222l7.111,0" style="fill:none;fill-rule:nonzero;stroke:#fff;stroke-width:14.22px;"/><path d="M78.222,99.556l21.333,56.889c-12.605,9.454 -30.061,9.454 -42.667,0l21.333,-56.889Zm0,0l0,-7.111" style="fill:none;fill-rule:nonzero;stroke:#fff;stroke-width:14.22px;"/><path d="M92.444,192l71.111,0" style="fill:none;fill-rule:nonzero;stroke:#fff;stroke-width:14.22px;"/></g></svg>