<?xml version="1.0" encoding="UTF-8" standalone="no"?><!DOCTYPE svg PUBLIC "-//W3C//DTD SVG 1.1//EN" "http://www.w3.org/Graphics/SVG/1.1/DTD/svg11.dtd"><svg width="100%" height="100%" viewBox="0 0 512 512" version="1.1" xmlns="http://www.w3.org/2000/svg" xmlns:xlink="http://www.w3.org/1999/xlink" xml:space="preserve" xmlns:serif="http://www.serif.com/" style="fill-rule:evenodd;clip-rule:evenodd;stroke-linejoin:round;stroke-miterlimit:2;"><rect id="light" x="0" y="0" width="512" height="512" style="fill:none;"/><clipPath id="_clip1"><rect x="0" y="0" width="512" height="512"/></clipPath><g clip-path="url(#_clip1)"><g><path d="M438.122,0l0,512l-416,0l0,-512l416,0Zm-203.125,410.245c17.16,0 32.24,-2.47 45.24,-7.41c13,-4.94 23.14,-11.96 30.42,-21.06c7.28,-9.1 10.92,-19.76 10.92,-31.98c0,-11.18 -2.47,-20.605 -7.41,-28.275c-4.94,-7.67 -12.87,-14.105 -23.79,-19.305c10.66,-4.42 18.525,-10.27 23.595,-17.55c5.07,-7.28 7.605,-15.99 7.605,-26.13c0,-12.48 -3.055,-22.815 -9.165,-31.005c-6.11,-8.19 -15.405,-15.08 -27.885,-20.67c-12.48,-5.59 -28.34,-10.465 -47.58,-14.625c-15.6,-3.64 -26.52,-7.475 -32.76,-11.505c-6.24,-4.03 -9.36,-9.685 -9.36,-16.965c0,-4.68 1.495,-8.84 4.485,-12.48c2.99,-3.64 7.085,-6.5 12.285,-8.58c5.2,-2.08 11.18,-3.12 17.94,-3.12c12.22,0 22.23,2.925 30.03,8.775c7.8,5.85 12.48,14.105 14.04,24.765l48.36,-2.34c-1.82,-14.56 -6.76,-26.975 -14.82,-37.245c-8.06,-10.27 -18.395,-18.135 -31.005,-23.595c-12.61,-5.46 -27.235,-8.19 -43.875,-8.19c-17.68,0 -33.085,2.535 -46.215,7.605c-13.13,5.07 -23.335,12.285 -30.615,21.645c-7.28,9.36 -10.92,20.54 -10.92,33.54c0,9.1 2.665,17.29 7.995,24.57c5.33,7.28 13.715,13.52 25.155,18.72c-10.92,5.2 -19.11,11.7 -24.57,19.5c-5.46,7.8 -8.32,16.77 -8.58,26.91c-0.26,10.66 2.08,19.955 7.02,27.885c4.94,7.93 12.87,14.625 23.79,20.085c10.92,5.46 25.09,10.01 42.51,13.65c20.28,4.16 34.385,8.775 42.315,13.845c7.93,5.07 11.895,11.115 11.895,18.135c0,4.68 -1.3,8.905 -3.9,12.675c-2.6,3.77 -6.695,6.63 -12.285,8.58c-5.59,1.95 -12.935,2.925 -22.035,2.925c-13.78,0 -24.505,-3.12 -32.175,-9.36c-7.67,-6.24 -12.545,-14.82 -14.625,-25.74l-48.75,2.73c1.3,14.04 5.98,26.325 14.04,36.855c8.06,10.53 19.11,18.785 33.15,24.765c14.04,5.98 30.55,8.97 49.53,8.97Zm5.46,-125.97c-12.22,-0.26 -22.1,-1.885 -29.64,-4.875c-7.54,-2.99 -12.935,-6.89 -16.185,-11.7c-3.25,-4.81 -4.875,-9.685 -4.875,-14.625c0,-5.2 1.625,-9.75 4.875,-13.65c3.25,-3.9 7.54,-7.02 12.87,-9.36c5.33,-2.34 11.245,-3.51 17.745,-3.51c8.06,0 15.99,1.04 23.79,3.12c7.8,2.08 14.365,5.395 19.695,9.945c5.33,4.55 7.995,10.465 7.995,17.745c0,8.06 -3.315,14.56 -9.945,19.5c-6.63,4.94 -15.405,7.41 -26.325,7.41Z" style="fill:#fff;"/><rect x="458.378" y="320.538" width="31.5" height="95.5" style="fill:#fff;"/><rect x="458.378" y="192.538" width="31.5" height="95.5" style="fill:#fff;"/><rect x="458.378" y="64.538" width="31.5" height="95.5" style="fill:#fff;"/></g></g></svg>